<mxfile host="Electron" modified="2023-12-28T19:10:32.684Z" agent="Mozilla/5.0 (Windows NT 10.0; Win64; x64) AppleWebKit/537.36 (KHTML, like Gecko) draw.io/22.0.2 Chrome/114.0.5735.289 Electron/25.8.4 Safari/537.36" etag="_rI4clvK7-JDVOkz5h0B" version="22.0.2" type="device">
  <diagram id="TlT8lYCYvY5gLDo3LEtC" name="Page-2">
    <mxGraphModel dx="2069" dy="722" grid="1" gridSize="10" guides="1" tooltips="1" connect="1" arrows="1" fold="1" page="1" pageScale="1" pageWidth="850" pageHeight="1100" math="0" shadow="0">
      <root>
        <mxCell id="0" />
        <mxCell id="1" parent="0" />
        <mxCell id="zhjO5qXBN4RuZDCf7y_H-1" value="" style="shape=table;startSize=0;container=1;collapsible=0;childLayout=tableLayout;fontSize=16;flipH=1;flipV=1;fillColor=#f5f5f5;fontColor=#333333;strokeColor=#666666;" parent="1" vertex="1">
          <mxGeometry x="60" y="60" width="270" height="40" as="geometry" />
        </mxCell>
        <mxCell id="zhjO5qXBN4RuZDCf7y_H-27" style="shape=tableRow;horizontal=0;startSize=0;swimlaneHead=0;swimlaneBody=0;top=0;left=0;bottom=0;right=0;collapsible=0;dropTarget=0;points=[[0,0.5],[1,0.5]];portConstraint=eastwest;fontSize=16;fillColor=#f5f5f5;fontColor=#333333;strokeColor=#666666;" parent="zhjO5qXBN4RuZDCf7y_H-1" vertex="1">
          <mxGeometry width="270" height="40" as="geometry" />
        </mxCell>
        <mxCell id="zhjO5qXBN4RuZDCf7y_H-28" value="name" style="shape=partialRectangle;html=1;whiteSpace=wrap;connectable=0;overflow=hidden;top=0;left=0;bottom=0;right=0;pointerEvents=1;fontSize=16;" parent="zhjO5qXBN4RuZDCf7y_H-27" vertex="1">
          <mxGeometry width="90" height="40" as="geometry">
            <mxRectangle width="90" height="40" as="alternateBounds" />
          </mxGeometry>
        </mxCell>
        <mxCell id="zhjO5qXBN4RuZDCf7y_H-29" value="&lt;u&gt;number&lt;/u&gt;" style="shape=partialRectangle;html=1;whiteSpace=wrap;connectable=0;overflow=hidden;top=0;left=0;bottom=0;right=0;pointerEvents=1;fontSize=16;fillColor=#d5e8d4;strokeColor=#82b366;gradientColor=#97d077;" parent="zhjO5qXBN4RuZDCf7y_H-27" vertex="1">
          <mxGeometry x="90" width="90" height="40" as="geometry">
            <mxRectangle width="90" height="40" as="alternateBounds" />
          </mxGeometry>
        </mxCell>
        <mxCell id="zhjO5qXBN4RuZDCf7y_H-30" value="bssn" style="shape=partialRectangle;html=1;whiteSpace=wrap;connectable=0;overflow=hidden;top=0;left=0;bottom=0;right=0;pointerEvents=1;fontSize=16;fillColor=#f5f5f5;gradientColor=#b3b3b3;strokeColor=#666666;" parent="zhjO5qXBN4RuZDCf7y_H-27" vertex="1">
          <mxGeometry x="180" width="90" height="40" as="geometry">
            <mxRectangle width="90" height="40" as="alternateBounds" />
          </mxGeometry>
        </mxCell>
        <mxCell id="QK-RZkzce69tuDd69Zr--1" value="branch" style="text;html=1;align=center;verticalAlign=middle;resizable=0;points=[];autosize=1;strokeColor=none;fillColor=none;" parent="1" vertex="1">
          <mxGeometry x="60" y="30" width="60" height="30" as="geometry" />
        </mxCell>
        <mxCell id="yZ6GcBBRf3JHSrTFH7pt-15" value="" style="shape=table;startSize=0;container=1;collapsible=0;childLayout=tableLayout;fontSize=16;" parent="1" vertex="1">
          <mxGeometry x="30" y="170" width="760" height="40" as="geometry" />
        </mxCell>
        <mxCell id="yZ6GcBBRf3JHSrTFH7pt-16" value="" style="shape=tableRow;horizontal=0;startSize=0;swimlaneHead=0;swimlaneBody=0;strokeColor=inherit;top=0;left=0;bottom=0;right=0;collapsible=0;dropTarget=0;fillColor=none;points=[[0,0.5],[1,0.5]];portConstraint=eastwest;fontSize=16;" parent="yZ6GcBBRf3JHSrTFH7pt-15" vertex="1">
          <mxGeometry width="760" height="40" as="geometry" />
        </mxCell>
        <mxCell id="yZ6GcBBRf3JHSrTFH7pt-17" value="name" style="shape=partialRectangle;html=1;whiteSpace=wrap;connectable=0;strokeColor=inherit;overflow=hidden;fillColor=none;top=0;left=0;bottom=0;right=0;pointerEvents=1;fontSize=16;" parent="yZ6GcBBRf3JHSrTFH7pt-16" vertex="1">
          <mxGeometry width="60" height="40" as="geometry">
            <mxRectangle width="60" height="40" as="alternateBounds" />
          </mxGeometry>
        </mxCell>
        <mxCell id="yZ6GcBBRf3JHSrTFH7pt-18" value="&lt;u&gt;ssn&lt;/u&gt;" style="shape=partialRectangle;html=1;whiteSpace=wrap;connectable=0;strokeColor=#82b366;overflow=hidden;fillColor=#d5e8d4;top=0;left=0;bottom=0;right=0;pointerEvents=1;fontSize=16;gradientColor=#97d077;" parent="yZ6GcBBRf3JHSrTFH7pt-16" vertex="1">
          <mxGeometry x="60" width="60" height="40" as="geometry">
            <mxRectangle width="60" height="40" as="alternateBounds" />
          </mxGeometry>
        </mxCell>
        <mxCell id="yZ6GcBBRf3JHSrTFH7pt-19" value="name of department" style="shape=partialRectangle;html=1;whiteSpace=wrap;connectable=0;strokeColor=#666666;overflow=hidden;fillColor=#f5f5f5;top=0;left=0;bottom=0;right=0;pointerEvents=1;fontSize=16;gradientColor=#b3b3b3;" parent="yZ6GcBBRf3JHSrTFH7pt-16" vertex="1">
          <mxGeometry x="120" width="130" height="40" as="geometry">
            <mxRectangle width="130" height="40" as="alternateBounds" />
          </mxGeometry>
        </mxCell>
        <mxCell id="yZ6GcBBRf3JHSrTFH7pt-29" value="email" style="shape=partialRectangle;html=1;whiteSpace=wrap;connectable=0;strokeColor=inherit;overflow=hidden;fillColor=none;top=0;left=0;bottom=0;right=0;pointerEvents=1;fontSize=16;" parent="yZ6GcBBRf3JHSrTFH7pt-16" vertex="1">
          <mxGeometry x="250" width="90" height="40" as="geometry">
            <mxRectangle width="90" height="40" as="alternateBounds" />
          </mxGeometry>
        </mxCell>
        <mxCell id="yZ6GcBBRf3JHSrTFH7pt-30" value="gender" style="shape=partialRectangle;html=1;whiteSpace=wrap;connectable=0;strokeColor=inherit;overflow=hidden;fillColor=none;top=0;left=0;bottom=0;right=0;pointerEvents=1;fontSize=16;" parent="yZ6GcBBRf3JHSrTFH7pt-16" vertex="1">
          <mxGeometry x="340" width="80" height="40" as="geometry">
            <mxRectangle width="80" height="40" as="alternateBounds" />
          </mxGeometry>
        </mxCell>
        <mxCell id="yZ6GcBBRf3JHSrTFH7pt-31" value="location" style="shape=partialRectangle;html=1;whiteSpace=wrap;connectable=0;strokeColor=inherit;overflow=hidden;fillColor=none;top=0;left=0;bottom=0;right=0;pointerEvents=1;fontSize=16;" parent="yZ6GcBBRf3JHSrTFH7pt-16" vertex="1">
          <mxGeometry x="420" width="80" height="40" as="geometry">
            <mxRectangle width="80" height="40" as="alternateBounds" />
          </mxGeometry>
        </mxCell>
        <mxCell id="yZ6GcBBRf3JHSrTFH7pt-32" value="name of branch" style="shape=partialRectangle;html=1;whiteSpace=wrap;connectable=0;strokeColor=inherit;overflow=hidden;fillColor=none;top=0;left=0;bottom=0;right=0;pointerEvents=1;fontSize=16;" parent="yZ6GcBBRf3JHSrTFH7pt-16" vertex="1">
          <mxGeometry x="500" width="110" height="40" as="geometry">
            <mxRectangle width="110" height="40" as="alternateBounds" />
          </mxGeometry>
        </mxCell>
        <mxCell id="yZ6GcBBRf3JHSrTFH7pt-33" value="birth-date" style="shape=partialRectangle;html=1;whiteSpace=wrap;connectable=0;strokeColor=inherit;overflow=hidden;fillColor=none;top=0;left=0;bottom=0;right=0;pointerEvents=1;fontSize=16;" parent="yZ6GcBBRf3JHSrTFH7pt-16" vertex="1">
          <mxGeometry x="610" width="80" height="40" as="geometry">
            <mxRectangle width="80" height="40" as="alternateBounds" />
          </mxGeometry>
        </mxCell>
        <mxCell id="yZ6GcBBRf3JHSrTFH7pt-34" value="hour works" style="shape=partialRectangle;html=1;whiteSpace=wrap;connectable=0;strokeColor=inherit;overflow=hidden;fillColor=none;top=0;left=0;bottom=0;right=0;pointerEvents=1;fontSize=16;" parent="yZ6GcBBRf3JHSrTFH7pt-16" vertex="1">
          <mxGeometry x="690" width="70" height="40" as="geometry">
            <mxRectangle width="70" height="40" as="alternateBounds" />
          </mxGeometry>
        </mxCell>
        <mxCell id="yZ6GcBBRf3JHSrTFH7pt-28" value="employee" style="text;html=1;align=center;verticalAlign=middle;resizable=0;points=[];autosize=1;strokeColor=none;fillColor=none;" parent="1" vertex="1">
          <mxGeometry x="20" y="140" width="80" height="30" as="geometry" />
        </mxCell>
        <mxCell id="yZ6GcBBRf3JHSrTFH7pt-35" value="" style="endArrow=classic;html=1;rounded=0;exitX=0.844;exitY=1.015;exitDx=0;exitDy=0;exitPerimeter=0;entryX=0.122;entryY=-0.115;entryDx=0;entryDy=0;entryPerimeter=0;" parent="1" source="zhjO5qXBN4RuZDCf7y_H-27" target="yZ6GcBBRf3JHSrTFH7pt-16" edge="1">
          <mxGeometry width="50" height="50" relative="1" as="geometry">
            <mxPoint x="180" y="120" as="sourcePoint" />
            <mxPoint x="450" y="100" as="targetPoint" />
            <Array as="points">
              <mxPoint x="288" y="130" />
              <mxPoint x="123" y="130" />
            </Array>
          </mxGeometry>
        </mxCell>
        <mxCell id="yZ6GcBBRf3JHSrTFH7pt-52" value="department" style="text;html=1;align=center;verticalAlign=middle;resizable=0;points=[];autosize=1;strokeColor=none;fillColor=none;" parent="1" vertex="1">
          <mxGeometry x="20" y="260" width="80" height="30" as="geometry" />
        </mxCell>
        <mxCell id="yZ6GcBBRf3JHSrTFH7pt-53" value="" style="endArrow=classic;html=1;rounded=0;entryX=0.321;entryY=-0.088;entryDx=0;entryDy=0;entryPerimeter=0;exitX=0.257;exitY=1.045;exitDx=0;exitDy=0;exitPerimeter=0;" parent="1" source="yZ6GcBBRf3JHSrTFH7pt-16" target="yZ6GcBBRf3JHSrTFH7pt-38" edge="1">
          <mxGeometry width="50" height="50" relative="1" as="geometry">
            <mxPoint x="828" y="210" as="sourcePoint" />
            <mxPoint x="530" y="290" as="targetPoint" />
            <Array as="points">
              <mxPoint x="225" y="240" />
              <mxPoint x="120" y="240" />
            </Array>
          </mxGeometry>
        </mxCell>
        <mxCell id="yZ6GcBBRf3JHSrTFH7pt-54" value="" style="shape=table;startSize=0;container=1;collapsible=0;childLayout=tableLayout;fontSize=16;fillColor=#000000;" parent="1" vertex="1">
          <mxGeometry x="60" y="410" width="125" height="40" as="geometry" />
        </mxCell>
        <mxCell id="yZ6GcBBRf3JHSrTFH7pt-55" value="" style="shape=tableRow;horizontal=0;startSize=0;swimlaneHead=0;swimlaneBody=0;strokeColor=inherit;top=0;left=0;bottom=0;right=0;collapsible=0;dropTarget=0;fillColor=none;points=[[0,0.5],[1,0.5]];portConstraint=eastwest;fontSize=16;" parent="yZ6GcBBRf3JHSrTFH7pt-54" vertex="1">
          <mxGeometry width="125" height="40" as="geometry" />
        </mxCell>
        <mxCell id="yZ6GcBBRf3JHSrTFH7pt-56" value="dname" style="shape=partialRectangle;html=1;whiteSpace=wrap;connectable=0;strokeColor=#666666;overflow=hidden;fillColor=#f5f5f5;top=0;left=0;bottom=0;right=0;pointerEvents=1;fontSize=16;gradientColor=#b3b3b3;" parent="yZ6GcBBRf3JHSrTFH7pt-55" vertex="1">
          <mxGeometry width="60" height="40" as="geometry">
            <mxRectangle width="60" height="40" as="alternateBounds" />
          </mxGeometry>
        </mxCell>
        <mxCell id="yZ6GcBBRf3JHSrTFH7pt-57" value="dproduct" style="shape=partialRectangle;html=1;whiteSpace=wrap;connectable=0;strokeColor=#666666;overflow=hidden;fillColor=#f5f5f5;top=0;left=0;bottom=0;right=0;pointerEvents=1;fontSize=16;gradientColor=#b3b3b3;" parent="yZ6GcBBRf3JHSrTFH7pt-55" vertex="1">
          <mxGeometry x="60" width="65" height="40" as="geometry">
            <mxRectangle width="65" height="40" as="alternateBounds" />
          </mxGeometry>
        </mxCell>
        <mxCell id="yZ6GcBBRf3JHSrTFH7pt-67" value="" style="endArrow=classic;html=1;rounded=0;entryX=0.199;entryY=1.048;entryDx=0;entryDy=0;entryPerimeter=0;" parent="1" target="yZ6GcBBRf3JHSrTFH7pt-38" edge="1">
          <mxGeometry width="50" height="50" relative="1" as="geometry">
            <mxPoint x="87" y="410" as="sourcePoint" />
            <mxPoint x="90" y="350" as="targetPoint" />
          </mxGeometry>
        </mxCell>
        <mxCell id="yZ6GcBBRf3JHSrTFH7pt-68" value="" style="shape=table;startSize=0;container=1;collapsible=0;childLayout=tableLayout;fontSize=16;" parent="1" vertex="1">
          <mxGeometry x="30" y="520" width="580" height="40" as="geometry" />
        </mxCell>
        <mxCell id="yZ6GcBBRf3JHSrTFH7pt-69" value="" style="shape=tableRow;horizontal=0;startSize=0;swimlaneHead=0;swimlaneBody=0;strokeColor=inherit;top=0;left=0;bottom=0;right=0;collapsible=0;dropTarget=0;fillColor=none;points=[[0,0.5],[1,0.5]];portConstraint=eastwest;fontSize=16;" parent="yZ6GcBBRf3JHSrTFH7pt-68" vertex="1">
          <mxGeometry width="580" height="40" as="geometry" />
        </mxCell>
        <mxCell id="yZ6GcBBRf3JHSrTFH7pt-70" value="color" style="shape=partialRectangle;html=1;whiteSpace=wrap;connectable=0;strokeColor=inherit;overflow=hidden;fillColor=none;top=0;left=0;bottom=0;right=0;pointerEvents=1;fontSize=16;" parent="yZ6GcBBRf3JHSrTFH7pt-69" vertex="1">
          <mxGeometry width="60" height="40" as="geometry">
            <mxRectangle width="60" height="40" as="alternateBounds" />
          </mxGeometry>
        </mxCell>
        <mxCell id="yZ6GcBBRf3JHSrTFH7pt-71" value="size" style="shape=partialRectangle;html=1;whiteSpace=wrap;connectable=0;strokeColor=inherit;overflow=hidden;fillColor=none;top=0;left=0;bottom=0;right=0;pointerEvents=1;fontSize=16;" parent="yZ6GcBBRf3JHSrTFH7pt-69" vertex="1">
          <mxGeometry x="60" width="60" height="40" as="geometry">
            <mxRectangle width="60" height="40" as="alternateBounds" />
          </mxGeometry>
        </mxCell>
        <mxCell id="yZ6GcBBRf3JHSrTFH7pt-72" value="packaging refrence" style="shape=partialRectangle;html=1;whiteSpace=wrap;connectable=0;strokeColor=inherit;overflow=hidden;fillColor=none;top=0;left=0;bottom=0;right=0;pointerEvents=1;fontSize=16;" parent="yZ6GcBBRf3JHSrTFH7pt-69" vertex="1">
          <mxGeometry x="120" width="90" height="40" as="geometry">
            <mxRectangle width="90" height="40" as="alternateBounds" />
          </mxGeometry>
        </mxCell>
        <mxCell id="yZ6GcBBRf3JHSrTFH7pt-81" value="year" style="shape=partialRectangle;html=1;whiteSpace=wrap;connectable=0;strokeColor=inherit;overflow=hidden;fillColor=none;top=0;left=0;bottom=0;right=0;pointerEvents=1;fontSize=16;" parent="yZ6GcBBRf3JHSrTFH7pt-69" vertex="1">
          <mxGeometry x="210" width="60" height="40" as="geometry">
            <mxRectangle width="60" height="40" as="alternateBounds" />
          </mxGeometry>
        </mxCell>
        <mxCell id="yZ6GcBBRf3JHSrTFH7pt-82" value="name" style="shape=partialRectangle;html=1;whiteSpace=wrap;connectable=0;strokeColor=inherit;overflow=hidden;fillColor=none;top=0;left=0;bottom=0;right=0;pointerEvents=1;fontSize=16;" parent="yZ6GcBBRf3JHSrTFH7pt-69" vertex="1">
          <mxGeometry x="270" width="60" height="40" as="geometry">
            <mxRectangle width="60" height="40" as="alternateBounds" />
          </mxGeometry>
        </mxCell>
        <mxCell id="yZ6GcBBRf3JHSrTFH7pt-83" value="&lt;u&gt;par code&lt;/u&gt;" style="shape=partialRectangle;html=1;whiteSpace=wrap;connectable=0;strokeColor=#82b366;overflow=hidden;fillColor=#d5e8d4;top=0;left=0;bottom=0;right=0;pointerEvents=1;fontSize=16;gradientColor=#97d077;" parent="yZ6GcBBRf3JHSrTFH7pt-69" vertex="1">
          <mxGeometry x="330" width="70" height="40" as="geometry">
            <mxRectangle width="70" height="40" as="alternateBounds" />
          </mxGeometry>
        </mxCell>
        <mxCell id="yZ6GcBBRf3JHSrTFH7pt-84" value="price" style="shape=partialRectangle;html=1;whiteSpace=wrap;connectable=0;strokeColor=inherit;overflow=hidden;fillColor=none;top=0;left=0;bottom=0;right=0;pointerEvents=1;fontSize=16;" parent="yZ6GcBBRf3JHSrTFH7pt-69" vertex="1">
          <mxGeometry x="400" width="60" height="40" as="geometry">
            <mxRectangle width="60" height="40" as="alternateBounds" />
          </mxGeometry>
        </mxCell>
        <mxCell id="yZ6GcBBRf3JHSrTFH7pt-85" value="quantity" style="shape=partialRectangle;html=1;whiteSpace=wrap;connectable=0;strokeColor=inherit;overflow=hidden;fillColor=none;top=0;left=0;bottom=0;right=0;pointerEvents=1;fontSize=16;" parent="yZ6GcBBRf3JHSrTFH7pt-69" vertex="1">
          <mxGeometry x="460" width="60" height="40" as="geometry">
            <mxRectangle width="60" height="40" as="alternateBounds" />
          </mxGeometry>
        </mxCell>
        <mxCell id="yZ6GcBBRf3JHSrTFH7pt-86" value="pucture" style="shape=partialRectangle;html=1;whiteSpace=wrap;connectable=0;strokeColor=inherit;overflow=hidden;fillColor=none;top=0;left=0;bottom=0;right=0;pointerEvents=1;fontSize=16;" parent="yZ6GcBBRf3JHSrTFH7pt-69" vertex="1">
          <mxGeometry x="520" width="60" height="40" as="geometry">
            <mxRectangle width="60" height="40" as="alternateBounds" />
          </mxGeometry>
        </mxCell>
        <mxCell id="yZ6GcBBRf3JHSrTFH7pt-87" value="product" style="text;html=1;align=center;verticalAlign=middle;resizable=0;points=[];autosize=1;strokeColor=none;fillColor=none;" parent="1" vertex="1">
          <mxGeometry x="30" y="490" width="60" height="30" as="geometry" />
        </mxCell>
        <mxCell id="yZ6GcBBRf3JHSrTFH7pt-88" value="" style="endArrow=classic;html=1;rounded=0;entryX=0.639;entryY=-0.025;entryDx=0;entryDy=0;entryPerimeter=0;" parent="1" target="yZ6GcBBRf3JHSrTFH7pt-69" edge="1">
          <mxGeometry width="50" height="50" relative="1" as="geometry">
            <mxPoint x="150" y="450" as="sourcePoint" />
            <mxPoint x="530" y="290" as="targetPoint" />
            <Array as="points">
              <mxPoint x="150" y="480" />
              <mxPoint x="400" y="480" />
            </Array>
          </mxGeometry>
        </mxCell>
        <mxCell id="yZ6GcBBRf3JHSrTFH7pt-89" value="" style="shape=table;startSize=0;container=1;collapsible=0;childLayout=tableLayout;fontSize=16;" parent="1" vertex="1">
          <mxGeometry x="30" y="710" width="440" height="50" as="geometry" />
        </mxCell>
        <mxCell id="yZ6GcBBRf3JHSrTFH7pt-90" value="" style="shape=tableRow;horizontal=0;startSize=0;swimlaneHead=0;swimlaneBody=0;strokeColor=inherit;top=0;left=0;bottom=0;right=0;collapsible=0;dropTarget=0;fillColor=none;points=[[0,0.5],[1,0.5]];portConstraint=eastwest;fontSize=16;" parent="yZ6GcBBRf3JHSrTFH7pt-89" vertex="1">
          <mxGeometry width="440" height="50" as="geometry" />
        </mxCell>
        <mxCell id="aOk9lMaS2_IWVOWA_af8-20" value="&lt;u&gt;id&lt;/u&gt;" style="shape=partialRectangle;html=1;whiteSpace=wrap;connectable=0;strokeColor=#82b366;overflow=hidden;fillColor=#d5e8d4;top=0;left=0;bottom=0;right=0;pointerEvents=1;fontSize=16;gradientColor=#97d077;" parent="yZ6GcBBRf3JHSrTFH7pt-90" vertex="1">
          <mxGeometry width="90" height="50" as="geometry">
            <mxRectangle width="90" height="50" as="alternateBounds" />
          </mxGeometry>
        </mxCell>
        <mxCell id="yZ6GcBBRf3JHSrTFH7pt-91" value="number of company" style="shape=partialRectangle;html=1;whiteSpace=wrap;connectable=0;overflow=hidden;top=0;left=0;bottom=0;right=0;pointerEvents=1;fontSize=16;" parent="yZ6GcBBRf3JHSrTFH7pt-90" vertex="1">
          <mxGeometry x="90" width="90" height="50" as="geometry">
            <mxRectangle width="90" height="50" as="alternateBounds" />
          </mxGeometry>
        </mxCell>
        <mxCell id="yZ6GcBBRf3JHSrTFH7pt-92" value="name of compant" style="shape=partialRectangle;html=1;whiteSpace=wrap;connectable=0;strokeColor=inherit;overflow=hidden;fillColor=none;top=0;left=0;bottom=0;right=0;pointerEvents=1;fontSize=16;" parent="yZ6GcBBRf3JHSrTFH7pt-90" vertex="1">
          <mxGeometry x="180" width="80" height="50" as="geometry">
            <mxRectangle width="80" height="50" as="alternateBounds" />
          </mxGeometry>
        </mxCell>
        <mxCell id="yZ6GcBBRf3JHSrTFH7pt-93" value="city" style="shape=partialRectangle;html=1;whiteSpace=wrap;connectable=0;strokeColor=inherit;overflow=hidden;fillColor=none;top=0;left=0;bottom=0;right=0;pointerEvents=1;fontSize=16;" parent="yZ6GcBBRf3JHSrTFH7pt-90" vertex="1">
          <mxGeometry x="260" width="50" height="50" as="geometry">
            <mxRectangle width="50" height="50" as="alternateBounds" />
          </mxGeometry>
        </mxCell>
        <mxCell id="yZ6GcBBRf3JHSrTFH7pt-102" value="email" style="shape=partialRectangle;html=1;whiteSpace=wrap;connectable=0;strokeColor=inherit;overflow=hidden;fillColor=none;top=0;left=0;bottom=0;right=0;pointerEvents=1;fontSize=16;" parent="yZ6GcBBRf3JHSrTFH7pt-90" vertex="1">
          <mxGeometry x="310" width="60" height="50" as="geometry">
            <mxRectangle width="60" height="50" as="alternateBounds" />
          </mxGeometry>
        </mxCell>
        <mxCell id="yZ6GcBBRf3JHSrTFH7pt-103" value="date of import" style="shape=partialRectangle;html=1;whiteSpace=wrap;connectable=0;strokeColor=inherit;overflow=hidden;fillColor=none;top=0;left=0;bottom=0;right=0;pointerEvents=1;fontSize=16;" parent="yZ6GcBBRf3JHSrTFH7pt-90" vertex="1">
          <mxGeometry x="370" width="70" height="50" as="geometry">
            <mxRectangle width="70" height="50" as="alternateBounds" />
          </mxGeometry>
        </mxCell>
        <mxCell id="yZ6GcBBRf3JHSrTFH7pt-104" value="import" style="text;html=1;align=center;verticalAlign=middle;resizable=0;points=[];autosize=1;strokeColor=none;fillColor=none;" parent="1" vertex="1">
          <mxGeometry x="20" y="680" width="60" height="30" as="geometry" />
        </mxCell>
        <mxCell id="yZ6GcBBRf3JHSrTFH7pt-105" value="" style="shape=table;startSize=0;container=1;collapsible=0;childLayout=tableLayout;fontSize=16;" parent="1" vertex="1">
          <mxGeometry x="37.5" y="610" width="120" height="40" as="geometry" />
        </mxCell>
        <mxCell id="yZ6GcBBRf3JHSrTFH7pt-106" value="" style="shape=tableRow;horizontal=0;startSize=0;swimlaneHead=0;swimlaneBody=0;strokeColor=inherit;top=0;left=0;bottom=0;right=0;collapsible=0;dropTarget=0;fillColor=none;points=[[0,0.5],[1,0.5]];portConstraint=eastwest;fontSize=16;" parent="yZ6GcBBRf3JHSrTFH7pt-105" vertex="1">
          <mxGeometry width="120" height="40" as="geometry" />
        </mxCell>
        <mxCell id="yZ6GcBBRf3JHSrTFH7pt-107" value="pssn" style="shape=partialRectangle;html=1;whiteSpace=wrap;connectable=0;strokeColor=#666666;overflow=hidden;fillColor=#f5f5f5;top=0;left=0;bottom=0;right=0;pointerEvents=1;fontSize=16;gradientColor=#b3b3b3;" parent="yZ6GcBBRf3JHSrTFH7pt-106" vertex="1">
          <mxGeometry width="60" height="40" as="geometry">
            <mxRectangle width="60" height="40" as="alternateBounds" />
          </mxGeometry>
        </mxCell>
        <mxCell id="yZ6GcBBRf3JHSrTFH7pt-108" value="issn" style="shape=partialRectangle;html=1;whiteSpace=wrap;connectable=0;strokeColor=#666666;overflow=hidden;fillColor=#f5f5f5;top=0;left=0;bottom=0;right=0;pointerEvents=1;fontSize=16;gradientColor=#b3b3b3;" parent="yZ6GcBBRf3JHSrTFH7pt-106" vertex="1">
          <mxGeometry x="60" width="60" height="40" as="geometry">
            <mxRectangle width="60" height="40" as="alternateBounds" />
          </mxGeometry>
        </mxCell>
        <mxCell id="yZ6GcBBRf3JHSrTFH7pt-118" value="" style="endArrow=classic;html=1;rounded=0;exitX=0.268;exitY=-0.015;exitDx=0;exitDy=0;exitPerimeter=0;entryX=0.637;entryY=1.035;entryDx=0;entryDy=0;entryPerimeter=0;" parent="1" source="yZ6GcBBRf3JHSrTFH7pt-106" target="yZ6GcBBRf3JHSrTFH7pt-69" edge="1">
          <mxGeometry width="50" height="50" relative="1" as="geometry">
            <mxPoint x="480" y="590" as="sourcePoint" />
            <mxPoint x="530" y="540" as="targetPoint" />
            <Array as="points">
              <mxPoint x="70" y="580" />
              <mxPoint x="400" y="580" />
            </Array>
          </mxGeometry>
        </mxCell>
        <mxCell id="yZ6GcBBRf3JHSrTFH7pt-119" value="" style="endArrow=classic;html=1;rounded=0;exitX=0.694;exitY=0.985;exitDx=0;exitDy=0;exitPerimeter=0;" parent="1" source="yZ6GcBBRf3JHSrTFH7pt-106" edge="1">
          <mxGeometry width="50" height="50" relative="1" as="geometry">
            <mxPoint x="480" y="590" as="sourcePoint" />
            <mxPoint x="96" y="710" as="targetPoint" />
            <Array as="points">
              <mxPoint x="120" y="680" />
              <mxPoint x="96" y="680" />
            </Array>
          </mxGeometry>
        </mxCell>
        <mxCell id="aOk9lMaS2_IWVOWA_af8-18" value="contains" style="text;html=1;align=center;verticalAlign=middle;resizable=0;points=[];autosize=1;strokeColor=none;fillColor=none;" parent="1" vertex="1">
          <mxGeometry x="10" y="390" width="70" height="30" as="geometry" />
        </mxCell>
        <mxCell id="aOk9lMaS2_IWVOWA_af8-19" value="imported" style="text;html=1;align=center;verticalAlign=middle;resizable=0;points=[];autosize=1;strokeColor=none;fillColor=none;" parent="1" vertex="1">
          <mxGeometry x="-10" y="588" width="70" height="30" as="geometry" />
        </mxCell>
        <mxCell id="yZ6GcBBRf3JHSrTFH7pt-37" value="" style="shape=table;startSize=0;container=1;collapsible=0;childLayout=tableLayout;fontSize=16;" parent="1" vertex="1">
          <mxGeometry x="30" y="290" width="280" height="50" as="geometry" />
        </mxCell>
        <mxCell id="yZ6GcBBRf3JHSrTFH7pt-38" value="" style="shape=tableRow;horizontal=0;startSize=0;swimlaneHead=0;swimlaneBody=0;strokeColor=inherit;top=0;left=0;bottom=0;right=0;collapsible=0;dropTarget=0;fillColor=none;points=[[0,0.5],[1,0.5]];portConstraint=eastwest;fontSize=16;" parent="yZ6GcBBRf3JHSrTFH7pt-37" vertex="1">
          <mxGeometry width="280" height="50" as="geometry" />
        </mxCell>
        <mxCell id="yZ6GcBBRf3JHSrTFH7pt-39" value="&lt;u&gt;number of department&lt;/u&gt;" style="shape=partialRectangle;html=1;whiteSpace=wrap;connectable=0;strokeColor=#82b366;overflow=hidden;fillColor=#d5e8d4;top=0;left=0;bottom=0;right=0;pointerEvents=1;fontSize=16;gradientColor=#97d077;" parent="yZ6GcBBRf3JHSrTFH7pt-38" vertex="1">
          <mxGeometry width="120" height="50" as="geometry">
            <mxRectangle width="120" height="50" as="alternateBounds" />
          </mxGeometry>
        </mxCell>
        <mxCell id="yZ6GcBBRf3JHSrTFH7pt-40" value="&lt;span style=&quot;border-color: var(--border-color);&quot;&gt;name_of&lt;br&gt;_ department&lt;/span&gt;" style="shape=partialRectangle;html=1;whiteSpace=wrap;connectable=0;strokeColor=inherit;overflow=hidden;fillColor=none;top=0;left=0;bottom=0;right=0;pointerEvents=1;fontSize=16;" parent="yZ6GcBBRf3JHSrTFH7pt-38" vertex="1">
          <mxGeometry x="120" width="160" height="50" as="geometry">
            <mxRectangle width="160" height="50" as="alternateBounds" />
          </mxGeometry>
        </mxCell>
      </root>
    </mxGraphModel>
  </diagram>
</mxfile>
